Patient4_TMGait_0pt3_01_left_22_EMG.mot
version=1
nRows=13
nColumns=33
inDegrees=no
endheader
time	1LAddLong	2LGlutMax	3LGlutMed	4LIliopsoas	5LSemiMemb	6LBicFemLong	7LRecFem	8LVastMed	9LVastLat	10LGasMed	11LTibAnt	12lTibPost	13LPeroneusLong	14LSol	15LExtDigLong	16LFlexDigLong	17RAddLong	18RGlutMax	19RGlutMed	20RIliopsoas	21RSemiMemb	22RBicFemLong	23RRecFem	24RVastMed	25RVastLat	26RGasMed	27RTibAnt	28RTibPost	29RPeroneusLong	30RSol	31RExtDigLong	32RFlexDigLong
41.877	0.023499	-0.19104	-0.011444	0.012512	0.10101	0.015564	-0.027771	-0.007324	-0.1326	-0.1973	-0.016327	0.006256	0.014496	0.18814	-0.020294	0.001831	0.05188	0.048065	-0.13382	-0.045013	0.11108	-0.012665	0.069733	-0.014191	0.080414	-0.007019	0.22461	-0.007172	-0.08255	-0.30792	-0.00061	0.001678
41.878	0.026093	-0.177	-0.007629	0.010223	0.033569	0.053101	-0.022125	-0.005951	-0.072327	-0.097198	-0.012054	0.004883	0.008545	0.1239	0.011902	-0.010834	-0.007019	0.033417	-0.097351	-0.097961	-0.27313	0.16419	0.032806	-0.074921	0.056152	0.00412	0.35019	-0.001984	-0.030518	-0.15488	-0.001831	-0.005035
41.879	0.020599	-0.092316	0.005188	0.027313	0.02121	-0.00412	0.036163	0.007935	-0.062256	-0.046387	-0.006714	-0.000458	0.008545	0.13199	-0.034485	-0.000153	-0.010834	0.022888	-0.15137	-0.15915	-0.12024	0.017395	0.091248	-0.051727	0.048828	0.002899	0.25604	0.005798	0.006104	0.054169	-0.00061	-0.00412
41.88	0.034943	-0.12375	0.088043	-0.005798	0.034027	-0.059204	0.063019	0.015564	-0.060577	0.043335	-0.009766	-0.007782	0.046082	0.096741	-0.067596	0.004272	-0.003357	-0.020142	-0.10284	-0.10696	0.063629	0.016785	0.10788	-0.017548	0.039215	0.019073	-0.13001	-0.003357	0.033417	-0.066681	-0.006256	-0.007782
41.881	0.025177	-0.12451	0.041351	-0.007477	0.055237	-0.04837	0.10559	0.007477	-0.053711	0.068054	0.000916	-0.007477	0.036774	0.06012	-0.080719	0.030518	0.02594	-0.018311	-0.15106	-0.025024	0.09964	0.008698	0.11032	-0.026398	0.040588	0.006256	-0.87647	0.01297	0.16174	-0.18906	-0.00061	-0.014496
41.882	0.028076	-0.062408	0.059052	0.001984	0.019836	-0.037842	0.14313	0.001068	-0.088959	0.069733	-0.000763	-0.001984	0.033875	0.003204	-0.075378	-0.020447	0.036011	0.045013	-0.10925	0.017242	0.12283	-0.15045	0.11368	0.007629	0.043335	0.00946	-0.69305	-0.049744	0.064545	-0.15259	0	-0.010071
41.883	0.020752	-0.040283	0.056763	0.012054	-0.037231	-0.036774	0.15671	-0.004883	-0.18387	-0.054016	0.033112	-0.000153	-0.006409	-0.12619	-0.075531	-0.31616	0.017242	0.038147	-0.14816	0.095673	0.016632	-0.36316	0.10361	-0.005493	0.048981	0.002747	-0.52567	0.004578	0.077972	-0.062866	0.000458	-0.019989
41.884	0.013885	-0.10056	0.046844	-0.001831	-0.047913	0.081635	0.14221	-0.002899	-0.20462	-0.02533	0.010071	0.001373	-0.007324	-0.23926	0.005188	0.12573	0.005646	-0.047913	-0.12024	0.1506	-0.083618	-0.40802	0.036774	0.008545	0.035858	-0.003357	-0.23499	-0.012054	-0.045624	-0.075073	0.001984	-0.016937
41.885	0.016327	-0.070343	0.000305	0.007477	-0.032196	0.10925	0.077972	0.002594	-0.18845	0.060425	-0.002747	0.004272	0.004425	-0.22827	0.094299	0.053253	-0.010376	-0.014954	-0.12146	0.15289	-0.002747	-0.32913	0.020905	0.071259	0.055237	-0.002747	0.031738	-0.011444	-0.13016	-0.11581	-0.000458	-0.013123
41.886	0.014496	-0.092316	-0.045013	0.007172	-0.012512	0.11246	0.028229	-0.008545	-0.086823	0.076141	-0.010529	0.003967	-0.004578	-0.13504	0.103	-0.003357	0.001373	-0.002594	-0.071564	0.12405	0.05127	-0.22186	0.056763	0.12116	0.067444	-0.006714	0.27664	-0.006866	-0.11704	-0.059662	-0.003967	-0.014038
41.887	0.023956	-0.03891	-0.067444	0.001373	-0.024109	0.055542	0.00824	-0.016174	0.037689	-0.00061	-0.021515	0.005035	-0.004578	0.014038	0.074158	0.005798	-0.025482	0.03479	-0.1297	0.04364	0.012207	-0.055084	0.079651	0.096741	0.055847	-0.002136	0.17624	-0.009766	-0.064697	0.036316	-0.001831	-0.01358
41.888	0.031433	-0.024719	-0.027924	-0.003052	-0.06897	0.12604	0.017853	-0.012207	0.13031	-0.025024	-0.02182	0.003815	0.00946	0.003357	0.011444	-0.000153	-0.02533	0.064392	-0.13016	-0.021362	-0.013428	0.20721	0.075684	0.066833	0.049286	-0.001831	0.079651	-0.002136	0.055695	0.12253	-0.002136	-0.013275
41.889	0.032806	0.02655	0.014648	0.006256	0.032806	0.11993	-0.090179	-0.001221	0.30868	-0.002136	-0.013123	0.000763	0.10651	-0.045776	-0.046387	0.010376	-0.000305	0.009003	-0.084534	0.072937	0.035248	0.45654	0.14435	-0.012512	0.030975	0.000763	-0.049896	-0.000916	0.16205	0.10284	-0.004425	-0.016174
